{"title":"Quartet.2012.720p.BluRay.X264.DTS-MiLLENiUM","uid":9361067,"size":3922261516,"categoryP":"video","categoryS":"hd___movies","magnet":"?xt=urn:btih:1bbdfb86fb8b60c97c62341338e10efc5a70df46&amp;dn=Quartet.2012.720p.BluRay.X264.DTS-MiLLENiUM&amp;tr=udp%3A%2F%2Ftracker.openbittorrent.com%3A80&amp;tr=udp%3A%2F%2Fopen.demonii.com%3A1337&amp;tr=udp%3A%2F%2Ftracker.coppersurfer.tk%3A6969&amp;tr=udp%3A%2F%2Fexodus.desync.com%3A6969","seeders":1,"leechers":1,"uploader":"7","files":2,"time":1387319800,"description":"\n\nReleased\t2012\nGenre\tComedy, Drama\nActors\tMaggie Smith, Tom Courtenay, Billy Connolly\nPlot\tAt a home for retired musicians, the annual concert to celebrate Verdi's birthday is disrupted by the arrival of Jean, an eternal diva and the former wife of one of the residents.\nIMDB link\thttp://www.imdb.com/title/tt1441951/\n\nSource ...: Blu-Ray\n\n\nGeneral\nUnique ID                                : 177677733249771288612883063830790868628 (0x85AB7C97D313445EB965681B86590E94)\nComplete name                            : Quartet.2012.720p.BluRay.X264.DTS-MiLLENiUM.mkv\nFormat                                   : Matroska\nFormat version                           : Version 2\nFile size                                : 3.61 GiB\nDuration                                 : 1h 38mn\nOverall bit rate mode                    : Variable\nOverall bit rate                         : 5 261 Kbps\nEncoded date                             : UTC 2013-12-16 15:27:35\nWriting application                      : mkvmerge v6.5.0 ('Isn't she lovely') built on Oct 20 2013 12:50:05\nWriting library                          : libebml v1.3.0 + libmatroska v1.4.1\n\nVideo\nID                                       : 1\nFormat                                   : AVC\nFormat/Info                              : Advanced Video Codec\nFormat profile                           : &lt;a class=&quot;__cf_email__&quot; href=&quot;/cdn-cgi/l/email-protection&quot; data-cfemail=&quot;226a4b454a626e160c13&quot;&gt;[email&amp;#160;protected]&lt;/a&gt;&lt;script data-cfhash='f9e31' type=&quot;text/javascript&quot;&gt;\n/* &lt;![CDATA[ */!function(){try{var t=&quot;currentScript&quot;in document?document.currentScript:function(){for(var t=document.getElementsByTagName(&quot;script&quot;),e=t.length;e--;)if(t[e].getAttribute(&quot;data-cfhash&quot;))return t[e]}();if(t&amp;&amp;t.previousSibling){var e,r,n,i,c=t.previousSibling,a=c.getAttribute(&quot;data-cfemail&quot;);if(a){for(e=&quot;&quot;,r=parseInt(a.substr(0,2),16),n=2;a.length-n;n+=2)i=parseInt(a.substr(n,2),16)^r,e+=String.fromCharCode(i);e=document.createTextNode(e),c.parentNode.replaceChild(e,c)}t.parentNode.removeChild(t);}}catch(u){}}()/* ]]&gt; */&lt;/script&gt;\nFormat settings, CABAC                   : Yes\nFormat settings, ReFrames                : 3 frames\nCodec ID                                 : V_MPEG4/ISO/AVC\nDuration                                 : 1h 38mn\nBit rate mode                            : Variable\nBit rate                                 : 3 648 Kbps\nMaximum bit rate                         : 40.0 Mbps\nWidth                                    : 1 280 pixels\nHeight                                   : 544 pixels\nDisplay aspect ratio                     : 2.35:1\nFrame rate mode                          : Constant\nFrame rate                               : 23.976 fps\nColor space                              : YUV\nChroma subsampling                       : 4:2:0\nBit depth                                : 8 bits\nScan type                                : Progressive\nBits/(Pixel*Frame)                       : 0.218\nStream size                              : 2.51 GiB (69%)\nWriting library                          : x264 core 140 r2377\nLanguage                                 : English\nDefault                                  : Yes\nForced                                   : No\nColor primaries                          : BT.709\nTransfer characteristics                 : BT.709\nMatrix coefficients                      : BT.709\n\nAudio\nID                                       : 2\nFormat                                   : DTS\nFormat/Info                              : Digital Theater Systems\nMode                                     : 16\nFormat settings, Endianness              : Big\nCodec ID                                 : A_DTS\nDuration                                 : 1h 38mn\nBit rate mode                            : Constant\nBit rate                                 : 1 509 Kbps\nChannel(s)                               : 6 channels\nChannel positions                        : Front: L C R, Side: L R, LFE\nSampling rate                            : 48.0 KHz\nBit depth                                : 24 bits\nCompression mode                         : Lossy\nStream size                              : 1.04 GiB (29%)\nLanguage                                 : English\nDefault                                  : Yes\nForced                                   : No\n\nText #1\nID                                       : 3\nFormat                                   : UTF-8\nCodec ID                                 : S_TEXT/UTF8\nCodec ID/Info                            : UTF-8 Plain Text\nLanguage                                 : English\nDefault                                  : Yes\nForced                                   : No\n\nText #2\nID                                       : 4\nFormat                                   : UTF-8\nCodec ID                                 : S_TEXT/UTF8\nCodec ID/Info                            : UTF-8 Plain Text\nLanguage                                 : English\nDefault                                  : No\nForced                                   : No\n\nMenu\n00:00:00.000                             : en:00:00:00.000\n00:06:25.176                             : en:00:06:25.176\n00:18:56.385                             : en:00:18:56.385\n00:29:14.836                             : en:00:29:14.836\n00:36:22.764                             : en:00:36:22.764\n00:44:43.389                             : en:00:44:43.389\n00:50:55.678                             : en:00:50:55.678\n01:03:49.034                             : en:01:03:49.034\n01:14:04.815                             : en:01:14:04.815\n01:25:39.217                             : en:01:25:39.217\n01:31:18.640                             : en:01:31:18.640i\n\nScreens : &lt;a href=&quot;\nhttp://lookpic.com/O/i2/1758/cWNRpnLr.png&quot; rel=&quot;nofollow&quot; target=&quot;_NEW&quot;&gt;\nhttp://lookpic.com/O/i2/1758/cWNRpnLr.png&lt;/a&gt; &lt;a href=&quot;\nhttp://lookpic.com/O/i2/1298/753DZARQ.png&quot; rel=&quot;nofollow&quot; target=&quot;_NEW&quot;&gt;\nhttp://lookpic.com/O/i2/1298/753DZARQ.png&lt;/a&gt; &lt;a href=&quot;\nhttp://lookpic.com/O/i2/118/EBKP87e.png&quot; rel=&quot;nofollow&quot; target=&quot;_NEW&quot;&gt;\nhttp://lookpic.com/O/i2/118/EBKP87e.png&lt;/a&gt; &lt;a href=&quot;\nhttp://lookpic.com/O/i2/1095/iVQRgVzv.png&quot; rel=&quot;nofollow&quot; target=&quot;_NEW&quot;&gt;\nhttp://lookpic.com/O/i2/1095/iVQRgVzv.png&lt;/a&gt; &lt;a href=&quot;\nhttp://lookpic.com/O/i2/1172/xRAxMCIp.png&quot; rel=&quot;nofollow&quot; target=&quot;_NEW&quot;&gt;\nhttp://lookpic.com/O/i2/1172/xRAxMCIp.png&lt;/a&gt; &lt;a href=&quot;\nhttp://lookpic.com/O/i2/999/fFTc0SF3.png&quot; rel=&quot;nofollow&quot; target=&quot;_NEW&quot;&gt;\nhttp://lookpic.com/O/i2/999/fFTc0SF3.png&lt;/a&gt; &lt;a href=&quot;\nhttp://lookpic.com/O/i2/289/keNn98QA.png&quot; rel=&quot;nofollow&quot; target=&quot;_NEW&quot;&gt;\nhttp://lookpic.com/O/i2/289/keNn98QA.png&lt;/a&gt;","torrent":{"xt":"urn:btih:1bbdfb86fb8b60c97c62341338e10efc5a70df46","amp;dn":"Quartet.2012.720p.BluRay.X264.DTS-MiLLENiUM","amp;tr":["udp%3A%2F%2Ftracker.openbittorrent.com%3A80","udp%3A%2F%2Fopen.demonii.com%3A1337","udp%3A%2F%2Ftracker.coppersurfer.tk%3A6969","udp%3A%2F%2Fexodus.desync.com%3A6969"],"infoHash":"1bbdfb86fb8b60c97c62341338e10efc5a70df46","infoHashBuffer":{"type":"Buffer","data":[27,189,251,134,251,139,96,201,124,98,52,19,56,225,14,252,90,112,223,70]},"announce":[],"urlList":[]}}